<svg version="1.2" xmlns="http://www.w3.org/2000/svg" viewBox="0 0 294 198" width="294" height="198">
	<style>
		.s0 { fill: #000000 }
	</style>
	<g id="Background">
		<path id="Path 1" class="s0" d="m193.5 30.39c-2.75 1.3-6.42 3.88-8.16 5.74-1.73 1.85-4.48 5.85-6.1 8.87-1.61 3.02-4.61 9.77-6.64 15-2.04 5.22-4.53 11.3-5.54 13.5-1.01 2.2-5.52 12.78-10.03 23.5-4.51 10.72-10.41 24.56-13.11 30.75-2.71 6.19-7.17 16.31-9.92 22.5-2.76 6.19-5.01 11.7-5.01 12.25 0 0.64 4.04 0.8 11.26 0.43 8.12-0.41 12.36-1.1 15.25-2.49 2.2-1.05 5.69-3.61 7.75-5.68 2.06-2.07 4.39-5.22 5.18-7.01 0.79-1.79 5.34-13.15 10.11-25.25 4.77-12.1 9.27-23.35 10-25 0.74-1.65 3.66-8.85 6.51-16 2.84-7.15 6.04-15.25 7.09-18 1.06-2.75 2.14-5.11 2.39-5.25 0.26-0.14 0.81-0.09 1.22 0.11 0.41 0.2 3.53 7.29 6.92 15.75 3.39 8.47 7.78 19.1 9.75 23.64 1.97 4.54 3.58 8.92 3.58 9.75 0 1.22-1.67 1.5-9 1.5-4.95 0-11.36 0.66-14.25 1.47-2.89 0.81-6.24 2.5-7.44 3.75-1.2 1.25-3.8 5.43-5.76 9.28-1.96 3.85-3.57 7.56-3.56 8.25 0.01 0.97 5.71 1.24 25.26 1.21l25.25-0.04c2.13 5.1 3.19 7.71 3.73 9.08 0.54 1.37 2.62 6.55 4.63 11.5l3.66 9c29.6 0.44 33.48 0.21 33.49-0.75 0-0.69-2.75-7.32-6.11-14.75-3.35-7.43-7.88-17.78-10.06-23-2.17-5.22-4.56-10.85-5.3-12.5-0.74-1.65-4.26-9.53-7.82-17.5-3.56-7.97-8.39-19-10.73-24.5-2.34-5.5-6.47-14.72-9.17-20.5-2.71-5.78-6.14-11.79-7.62-13.38-1.49-1.58-4.95-3.94-7.7-5.24-3.77-1.78-6.72-2.36-12-2.36-5.29 0-8.22 0.58-12 2.37z"/>
		<path id="Path 2" class="s0" d="m23.53 95.25l0.03 67.25h30.94c-0.45-73.71-0.23-82.5 0.75-82.52 0.69-0.01 6.2 8.55 12.25 19.03 6.05 10.49 12.35 20.7 14 22.7 1.65 2.01 4.8 4.46 7 5.45 2.2 0.99 6.25 1.79 9 1.79 3.45-0.01 6.4-0.79 9.5-2.51 2.53-1.4 5.95-4.56 7.81-7.22 1.81-2.6 6.93-10.8 11.37-18.22 4.45-7.43 9.03-15.18 10.2-17.24 1.17-2.06 2.46-3.75 2.87-3.75 0.41-0.01 0.77 6.18 0.79 13.74l0.04 13.75c2.72-5.43 7.01-15.33 11.29-25.5 4.28-10.18 8.17-19.4 8.65-20.5 0.48-1.1 1.82-4.25 2.98-7 1.16-2.75 2.52-5.9 3.03-7 0.5-1.1 1.83-4.36 2.94-7.25 1.12-2.89 2.03-6.83 2.03-8.75v-3.5c-21.07 0.04-24.33 0.43-27.5 1.9-2.2 1.03-5.64 3.6-7.64 5.73-2 2.13-8.24 11.74-13.88 21.37-5.63 9.62-11.47 19.3-12.97 21.5-1.51 2.2-4.58 7.37-6.82 11.5-2.24 4.12-4.41 7.5-4.81 7.5-0.41 0-3.51-4.73-6.89-10.5-3.38-5.78-11.45-19.28-17.92-30-6.48-10.73-13.19-20.97-14.92-22.76-1.73-1.8-5.17-3.94-7.65-4.77-2.92-0.97-8.37-1.49-15.5-1.48l-11 0.01z"/>
	</g>
</svg>
